<svg width="199" height="63" viewBox="0 0 199 63" fill="none" xmlns="http://www.w3.org/2000/svg">
<rect width="61.6392" height="198.111" transform="translate(0.889648 62.1104) rotate(-90)" fill="url(#paint0_linear_1_4152)"/>
<path d="M37.9616 20.5431L19.8096 20.5431C18.8178 20.5431 17.9512 21.2567 17.9512 22.2369L17.9512 40.4292C17.9512 41.4147 18.8178 42.293 19.8096 42.293L37.9562 42.293C38.9534 42.293 39.7011 41.4089 39.7011 40.4292L39.7011 22.2369C39.7069 21.2567 38.9534 20.5431 37.9616 20.5431ZM24.6932 38.6727L21.5773 38.6727L21.5773 28.9848L24.6932 28.9848L24.6932 38.6727ZM23.243 27.5118H23.2207C22.2235 27.5118 21.5778 26.7695 21.5778 25.8402C21.5778 24.894 22.2405 24.1692 23.26 24.1692C24.2795 24.1692 24.9034 24.8887 24.9257 25.8402C24.9252 26.7695 24.2795 27.5118 23.243 27.5118ZM36.0808 38.6727L32.9649 38.6727L32.9649 33.3755C32.9649 32.1064 32.5115 31.2394 31.3842 31.2394C30.5229 31.2394 30.0132 31.822 29.7864 32.3895C29.7015 32.5934 29.6787 32.8711 29.6787 33.1546L29.6787 38.6727H26.5628L26.5628 28.9848L29.6787 28.9848L29.6787 30.333C30.1321 29.6873 30.8404 28.758 32.4887 28.758C34.534 28.758 36.0813 30.1062 36.0813 33.0129L36.0808 38.6727Z" fill="#1C1F35"/>
<path d="M86.3392 22.5842C85.5309 22.9352 84.6757 23.1664 83.8006 23.2706C84.7203 22.7324 85.4119 21.8775 85.7457 20.8661C84.8762 21.3741 83.9265 21.7306 82.9373 21.9203C82.5207 21.484 82.0198 21.137 81.4648 20.9002C80.9099 20.6635 80.3125 20.542 79.7091 20.5431C77.2661 20.5431 75.289 22.49 75.289 24.89C75.2873 25.2238 75.3256 25.5567 75.4031 25.8814C73.6512 25.7993 71.9358 25.3528 70.3666 24.5703C68.7974 23.7878 67.4089 22.6866 66.29 21.3371C65.8974 21.9984 65.6898 22.7529 65.6889 23.5218C65.6889 25.0291 66.4758 26.3614 67.6641 27.142C66.9601 27.1253 66.2705 26.9391 65.6538 26.5992V26.653C65.6538 28.7614 67.1802 30.5154 69.2003 30.9147C68.8204 31.0159 68.429 31.0672 68.0358 31.0672C67.7568 31.0677 67.4785 31.0407 67.2049 30.9865C67.7665 32.7136 69.401 33.9697 71.3372 34.0056C69.7639 35.2172 67.8323 35.8721 65.846 35.8672C65.4934 35.8667 65.1412 35.8458 64.791 35.8044C66.8117 37.0938 69.1606 37.7758 71.5581 37.7693C79.6997 37.7693 84.1476 31.1435 84.1476 25.3969C84.1476 25.2085 84.1427 25.0201 84.1337 24.8362C84.997 24.2225 85.7439 23.4599 86.3392 22.5842Z" fill="#1C1F35"/>
<path fill-rule="evenodd" clip-rule="evenodd" d="M134.511 31.3533C134.511 25.3835 129.344 20.543 122.97 20.543C116.597 20.543 111.429 25.3835 111.429 31.3533C111.429 36.7488 115.649 41.2211 121.167 42.0328L121.167 34.4791L118.236 34.4791V31.3533L121.167 31.3533V28.9717C121.167 26.2628 122.89 24.7653 125.526 24.7653C126.789 24.7653 128.11 24.9767 128.11 24.9767V27.6373L126.654 27.6373C125.221 27.6373 124.773 28.4702 124.773 29.3264V31.3533L127.974 31.3533L127.462 34.4791L124.773 34.4791L124.773 42.0338C130.292 41.2225 134.511 36.7502 134.511 31.3533Z" fill="#1C1F35"/>
<path d="M175.424 22.3342C176.657 22.3377 177.839 22.8107 178.711 23.6498C179.583 24.4889 180.075 25.626 180.078 26.8127L180.078 35.7688C180.075 36.9555 179.583 38.0926 178.711 38.9317C177.839 39.7708 176.657 40.2438 175.424 40.2473L166.117 40.2473C164.884 40.2438 163.702 39.7708 162.83 38.9317C161.958 38.0926 161.467 36.9555 161.463 35.7688V26.8127C161.467 25.626 161.958 24.4889 162.83 23.6498C163.702 22.8107 164.884 22.3377 166.117 22.3342L175.424 22.3342ZM175.424 20.543L166.117 20.543C162.533 20.543 159.602 23.3643 159.602 26.8127L159.602 35.7688C159.602 39.2172 162.533 42.0385 166.117 42.0385L175.424 42.0385C179.008 42.0385 181.94 39.2172 181.94 35.7688L181.94 26.8127C181.94 23.3643 179.008 20.543 175.424 20.543Z" fill="#1C1F35"/>
<path d="M176.821 26.8131C176.545 26.8131 176.275 26.7343 176.045 26.5867C175.816 26.4391 175.637 26.2292 175.531 25.9837C175.425 25.7383 175.398 25.4681 175.451 25.2075C175.505 24.9469 175.638 24.7075 175.834 24.5197C176.029 24.3318 176.278 24.2038 176.548 24.152C176.819 24.1001 177.1 24.1267 177.355 24.2284C177.61 24.3301 177.828 24.5023 177.982 24.7232C178.135 24.9442 178.217 25.2039 178.217 25.4696C178.217 25.6462 178.181 25.821 178.111 25.9842C178.041 26.1474 177.939 26.2956 177.809 26.4204C177.679 26.5453 177.525 26.6442 177.356 26.7116C177.186 26.779 177.004 26.8135 176.821 26.8131ZM170.771 27.7084C171.507 27.7084 172.227 27.9185 172.84 28.3122C173.452 28.7059 173.929 29.2654 174.211 29.9201C174.493 30.5748 174.566 31.2951 174.423 31.9901C174.279 32.6851 173.924 33.3235 173.404 33.8245C172.883 34.3256 172.22 34.6668 171.497 34.805C170.775 34.9433 170.027 34.8723 169.346 34.6012C168.666 34.33 168.084 33.8708 167.675 33.2816C167.266 32.6924 167.048 31.9997 167.048 31.2911C167.049 30.3413 167.442 29.4306 168.14 28.7589C168.838 28.0872 169.784 27.7094 170.771 27.7084ZM170.771 25.9173C169.667 25.9173 168.587 26.2325 167.668 26.8229C166.75 27.4134 166.034 28.2527 165.612 29.2347C165.189 30.2166 165.078 31.2971 165.294 32.3395C165.509 33.382 166.041 34.3395 166.822 35.091C167.603 35.8426 168.598 36.3544 169.682 36.5617C170.765 36.7691 171.888 36.6627 172.908 36.2559C173.929 35.8492 174.801 35.1604 175.414 34.2767C176.028 33.393 176.356 32.354 176.356 31.2911C176.356 29.8659 175.767 28.499 174.72 27.4913C173.673 26.4835 172.252 25.9173 170.771 25.9173Z" fill="#1C1F35"/>
<defs>
<linearGradient id="paint0_linear_1_4152" x1="-1.7475" y1="42.9239" x2="76.1481" y2="44.645" gradientUnits="userSpaceOnUse">
<stop stop-color="#FFB629"/>
<stop offset="0.507189" stop-color="#FFDA56"/>
<stop offset="1" stop-color="#FFD7A6"/>
</linearGradient>
</defs>
</svg>
