<svg width="105" height="63" viewBox="0 0 105 63" fill="none" xmlns="http://www.w3.org/2000/svg">
<rect width="61.6392" height="104.633" transform="translate(0.367188 62.1104) rotate(-90)" fill="url(#paint0_linear_1_4175)"/>
<path fill-rule="evenodd" clip-rule="evenodd" d="M40.5114 31.3533C40.5114 25.3836 35.3435 20.5431 28.97 20.5431C22.5965 20.5431 17.4287 25.3836 17.4287 31.3533C17.4287 36.7488 21.6485 41.2211 27.1667 42.0328L27.1667 34.4791L24.2355 34.4791L24.2355 31.3533L27.1667 31.3533L27.1667 28.9717C27.1667 26.2629 28.8902 24.7653 31.5261 24.7653C32.789 24.7653 34.11 24.9767 34.11 24.9767L34.11 27.6373L32.654 27.6373C31.2211 27.6373 30.7728 28.4703 30.7728 29.3264L30.7728 31.3533L33.9735 31.3533L33.4624 34.4791L30.7734 34.4791L30.7734 42.0338C36.2916 41.2225 40.5114 36.7503 40.5114 31.3533Z" fill="#1C1F35"/>
<path d="M81.4242 22.3342C82.6575 22.3377 83.8391 22.8107 84.7111 23.6498C85.5831 24.489 86.0747 25.626 86.0784 26.8127L86.0784 35.7688C86.0747 36.9555 85.5831 38.0926 84.7111 38.9317C83.8391 39.7708 82.6575 40.2438 81.4242 40.2474L72.117 40.2474C70.8838 40.2438 69.7022 39.7708 68.8301 38.9317C67.9581 38.0926 67.4666 36.9555 67.4629 35.7688V26.8127C67.4666 25.626 67.9581 24.489 68.8301 23.6498C69.7022 22.8107 70.8838 22.3377 72.117 22.3342L81.4242 22.3342ZM81.4242 20.5431L72.117 20.5431C68.5334 20.5431 65.6016 23.3643 65.6016 26.8127V35.7688C65.6016 39.2172 68.5334 42.0385 72.117 42.0385L81.4242 42.0385C85.0078 42.0385 87.9397 39.2172 87.9397 35.7688L87.9397 26.8127C87.9397 23.3643 85.0078 20.5431 81.4242 20.5431Z" fill="#1C1F35"/>
<path d="M82.8208 26.8131C82.5447 26.8131 82.2747 26.7343 82.0452 26.5867C81.8156 26.4391 81.6366 26.2293 81.5309 25.9838C81.4253 25.7383 81.3976 25.4682 81.4515 25.2076C81.5054 24.947 81.6383 24.7076 81.8336 24.5197C82.0288 24.3318 82.2776 24.2038 82.5484 24.152C82.8193 24.1002 83.1 24.1268 83.3551 24.2285C83.6102 24.3301 83.8282 24.5023 83.9816 24.7233C84.1351 24.9442 84.2169 25.2039 84.2169 25.4697C84.2173 25.6462 84.1815 25.8211 84.1115 25.9842C84.0414 26.1474 83.9386 26.2956 83.8089 26.4205C83.6792 26.5453 83.5251 26.6442 83.3555 26.7116C83.186 26.779 83.0043 26.8135 82.8208 26.8131ZM76.7711 27.7084C77.5074 27.7084 78.2273 27.9186 78.8396 28.3122C79.4518 28.7059 79.929 29.2655 80.2108 29.9201C80.4926 30.5748 80.5664 31.2951 80.4227 31.9901C80.279 32.6851 79.9244 33.3235 79.4037 33.8245C78.8831 34.3256 78.2196 34.6668 77.4974 34.8051C76.7752 34.9433 76.0266 34.8724 75.3463 34.6012C74.6659 34.33 74.0845 33.8708 73.6753 33.2816C73.2662 32.6925 73.0479 31.9998 73.0479 31.2912C73.0489 30.3413 73.4415 29.4306 74.1395 28.7589C74.8375 28.0873 75.7839 27.7095 76.7711 27.7084ZM76.7711 25.9173C75.6665 25.9173 74.5868 26.2325 73.6685 26.823C72.7501 27.4135 72.0343 28.2527 71.6116 29.2347C71.1889 30.2166 71.0784 31.2971 71.2938 32.3396C71.5093 33.382 72.0412 34.3395 72.8222 35.0911C73.6032 35.8426 74.5983 36.3544 75.6816 36.5618C76.7649 36.7691 77.8877 36.6627 78.9082 36.256C79.9286 35.8492 80.8008 35.1605 81.4144 34.2767C82.0281 33.393 82.3556 32.354 82.3556 31.2912C82.3556 29.8659 81.7672 28.4991 80.7199 27.4913C79.6726 26.4835 78.2522 25.9173 76.7711 25.9173Z" fill="#1C1F35"/>
<defs>
<linearGradient id="paint0_linear_1_4175" x1="-1.7475" y1="22.6704" x2="76.05" y2="25.925" gradientUnits="userSpaceOnUse">
<stop stop-color="#FFB629"/>
<stop offset="0.507189" stop-color="#FFDA56"/>
<stop offset="1" stop-color="#FFD7A6"/>
</linearGradient>
</defs>
</svg>
