<svg width="152" height="63" viewBox="0 0 152 63" fill="none" xmlns="http://www.w3.org/2000/svg">
<rect width="61.6392" height="151.271" transform="translate(0.729492 62.1104) rotate(-90)" fill="url(#paint0_linear_1_4131)"/>
<path d="M39.3392 22.5842C38.5309 22.9352 37.6757 23.1664 36.8006 23.2706C37.7203 22.7324 38.4119 21.8775 38.7457 20.8661C37.8762 21.3741 36.9265 21.7306 35.9373 21.9203C35.5207 21.484 35.0198 21.137 34.4648 20.9002C33.9099 20.6635 33.3125 20.542 32.7091 20.5431C30.2661 20.5431 28.289 22.49 28.289 24.89C28.2873 25.2238 28.3256 25.5567 28.4031 25.8814C26.6512 25.7993 24.9358 25.3528 23.3666 24.5703C21.7974 23.7878 20.4089 22.6866 19.29 21.3371C18.8974 21.9984 18.6898 22.7529 18.6889 23.5218C18.6889 25.0291 19.4758 26.3614 20.6641 27.142C19.9601 27.1253 19.2705 26.9391 18.6538 26.5992V26.653C18.6538 28.7614 20.1802 30.5154 22.2003 30.9147C21.8204 31.0159 21.429 31.0672 21.0358 31.0672C20.7568 31.0677 20.4785 31.0407 20.2049 30.9865C20.7665 32.7136 22.401 33.9697 24.3372 34.0056C22.7639 35.2172 20.8323 35.8721 18.846 35.8672C18.4934 35.8667 18.1412 35.8458 17.791 35.8044C19.8117 37.0938 22.1606 37.7758 24.5581 37.7693C32.6997 37.7693 37.1476 31.1435 37.1476 25.3969C37.1476 25.2085 37.1427 25.0201 37.1337 24.8362C37.997 24.2225 38.7439 23.4599 39.3392 22.5842Z" fill="#1C1F35"/>
<path fill-rule="evenodd" clip-rule="evenodd" d="M87.5114 31.3533C87.5114 25.3836 82.3435 20.5431 75.97 20.5431C69.5965 20.5431 64.4287 25.3836 64.4287 31.3533C64.4287 36.7488 68.6485 41.2211 74.1667 42.0328L74.1667 34.4791L71.2355 34.4791V31.3533L74.1667 31.3533V28.9717C74.1667 26.2629 75.8902 24.7653 78.5261 24.7653C79.789 24.7653 81.11 24.9767 81.11 24.9767V27.6373L79.654 27.6373C78.2211 27.6373 77.7728 28.4703 77.7728 29.3264V31.3533L80.9735 31.3533L80.4624 34.4791L77.7734 34.4791L77.7734 42.0338C83.2916 41.2225 87.5114 36.7503 87.5114 31.3533Z" fill="#1C1F35"/>
<path d="M128.424 22.3342C129.657 22.3377 130.839 22.8107 131.711 23.6498C132.583 24.4889 133.075 25.626 133.078 26.8127L133.078 35.7688C133.075 36.9555 132.583 38.0926 131.711 38.9317C130.839 39.7708 129.657 40.2438 128.424 40.2473L119.117 40.2473C117.884 40.2438 116.702 39.7708 115.83 38.9317C114.958 38.0926 114.467 36.9555 114.463 35.7688V26.8127C114.467 25.626 114.958 24.4889 115.83 23.6498C116.702 22.8107 117.884 22.3377 119.117 22.3342L128.424 22.3342ZM128.424 20.543L119.117 20.543C115.533 20.543 112.602 23.3643 112.602 26.8127V35.7688C112.602 39.2172 115.533 42.0385 119.117 42.0385L128.424 42.0385C132.008 42.0385 134.94 39.2172 134.94 35.7688L134.94 26.8127C134.94 23.3643 132.008 20.543 128.424 20.543Z" fill="#1C1F35"/>
<path d="M129.821 26.8131C129.545 26.8131 129.275 26.7343 129.045 26.5867C128.816 26.4391 128.637 26.2292 128.531 25.9837C128.425 25.7383 128.398 25.4681 128.451 25.2075C128.505 24.9469 128.638 24.7075 128.834 24.5197C129.029 24.3318 129.278 24.2038 129.548 24.152C129.819 24.1001 130.1 24.1267 130.355 24.2284C130.61 24.3301 130.828 24.5023 130.982 24.7232C131.135 24.9442 131.217 25.2039 131.217 25.4696C131.217 25.6462 131.181 25.821 131.111 25.9842C131.041 26.1474 130.939 26.2956 130.809 26.4204C130.679 26.5453 130.525 26.6442 130.356 26.7116C130.186 26.779 130.004 26.8135 129.821 26.8131ZM123.771 27.7084C124.507 27.7084 125.227 27.9185 125.84 28.3122C126.452 28.7059 126.929 29.2654 127.211 29.9201C127.493 30.5748 127.566 31.2951 127.423 31.9901C127.279 32.6851 126.924 33.3235 126.404 33.8245C125.883 34.3256 125.22 34.6668 124.497 34.805C123.775 34.9433 123.027 34.8723 122.346 34.6012C121.666 34.33 121.084 33.8708 120.675 33.2816C120.266 32.6924 120.048 31.9997 120.048 31.2911C120.049 30.3413 120.442 29.4306 121.14 28.7589C121.838 28.0872 122.784 27.7094 123.771 27.7084ZM123.771 25.9173C122.667 25.9173 121.587 26.2325 120.668 26.8229C119.75 27.4134 119.034 28.2527 118.612 29.2347C118.189 30.2166 118.078 31.2971 118.294 32.3395C118.509 33.382 119.041 34.3395 119.822 35.091C120.603 35.8426 121.598 36.3544 122.682 36.5617C123.765 36.7691 124.888 36.6627 125.908 36.2559C126.929 35.8492 127.801 35.1604 128.414 34.2767C129.028 33.393 129.356 32.354 129.356 31.2911C129.356 29.8659 128.767 28.499 127.72 27.4913C126.673 26.4835 125.252 25.9173 123.771 25.9173Z" fill="#1C1F35"/>
<defs>
<linearGradient id="paint0_linear_1_4131" x1="-1.7475" y1="32.7753" x2="76.1209" y2="35.0286" gradientUnits="userSpaceOnUse">
<stop stop-color="#FFB629"/>
<stop offset="0.507189" stop-color="#FFDA56"/>
<stop offset="1" stop-color="#FFD7A6"/>
</linearGradient>
</defs>
</svg>
