<svg width="49" height="28" viewBox="0 0 49 28" fill="none" xmlns="http://www.w3.org/2000/svg">
<path d="M1.52037 17.9932L9.23628 25.2267C10.2651 26.1923 11.5778 26.7997 12.979 26.9584C14.3803 27.1172 15.7953 26.8188 17.0136 26.1078L48 8.07524L44.1932 3.40316C43.2029 2.19225 41.8128 1.37588 40.2739 1.10154C38.7349 0.827207 37.1488 1.113 35.8019 1.90728L26.7147 7.25558L14.4348 3.15727L11.0578 4.61217C10.8052 4.72057 10.5838 4.89092 10.4142 5.10749C10.2446 5.32407 10.1322 5.57991 10.0874 5.85142C10.0425 6.12294 10.0667 6.4014 10.1576 6.66111C10.2485 6.92083 10.4032 7.15346 10.6075 7.33755L16.8908 12.9932L11.1601 16.2719L5.42949 13.8129L1.9911 15.2883C1.74095 15.3959 1.52154 15.5642 1.35273 15.7781C1.18392 15.9919 1.07104 16.2446 1.0243 16.5131C0.977569 16.7817 0.998455 17.0576 1.08507 17.3161C1.17169 17.5745 1.3213 17.8072 1.52037 17.9932V17.9932Z" stroke="#1C1F35" stroke-linecap="round" stroke-linejoin="round"/>
</svg>
